<svg xmlns="http://www.w3.org/2000/svg" width="16" height="16"><path id="Calender" d="M419.125 1098.25h-.75V1097h-1.25v1.25h-8.25V1097h-1.25v1.25h-.75a1.875 1.875 0 00-1.875 1.87v11a1.877 1.877 0 001.875 1.88h12.25a1.877 1.877 0 001.875-1.88v-11a1.875 1.875 0 00-1.875-1.87zm-12.25 1.25h.75v1.25h1.25v-1.25h8.25v1.25h1.25v-1.25h.75a.624.624 0 01.625.62v1.5h-13.5v-1.5a.624.624 0 01.625-.62zm12.25 12.25h-12.25a.626.626 0 01-.625-.63v-8.25h13.5v8.25a.626.626 0 01-.625.63zm-11.75-7.56h1.25v1.25h-1.25v-1.25zm2.5 0h1.25v1.25h-1.25v-1.25zm2.5 0h1.25v1.25h-1.25v-1.25zm2.5 0h1.25v1.25h-1.25v-1.25zm2.5 0h1.25v1.25h-1.25v-1.25zm-10 2.5h1.25v1.25h-1.25v-1.25zm2.5 0h1.25v1.25h-1.25v-1.25zm2.5 0h1.25v1.25h-1.25v-1.25zm2.5 0h1.25v1.25h-1.25v-1.25zm-7.5 2.5h1.25v1.25h-1.25v-1.25zm2.5 0h1.25v1.25h-1.25v-1.25zm2.5 0h1.25v1.25h-1.25v-1.25zm2.5 0h1.25v1.25h-1.25v-1.25zm2.5-2.5h1.25v1.25h-1.25v-1.25z" transform="translate(-405 -1097)" fill="#fe3e57" fill-rule="evenodd"/></svg>