<svg xmlns="http://www.w3.org/2000/svg" width="32" height="32"><path d="M8.297 5.082c-.348.082-.906.363-1.192.586-.359.289-.69.73-.867 1.156l-.062.168H5.023c-1.375 0-1.418.008-1.718.313-.418.418-.418.972 0 1.39.3.305.343.313 1.718.313h1.153l.047.129c.066.187.285.55.472.785.32.406 1.004.844 1.532.984.289.078.976.106 1.28.051a2.9 2.9 0 001.544-.777c.304-.29.5-.555.68-.938l.109-.234h8.144c9.278 0 8.368.031 8.711-.313.418-.418.418-.972 0-1.39-.343-.344.567-.313-8.71-.313H11.84l-.11-.238c-.343-.719-.964-1.309-1.668-1.563-.546-.195-1.23-.238-1.765-.109zM9.402 7.09c.399.176.653.648.578 1.07-.093.492-.484.828-.972.828-.395 0-.719-.203-.91-.57-.114-.223-.114-.613 0-.836.261-.504.812-.71 1.304-.492zm13.153 5.933c-.016.008-.149.04-.29.07-.85.196-1.632.856-2.007 1.692l-.094.207-8.21.008-8.216.008-.172.094c-.21.109-.363.27-.472.48-.117.223-.117.613 0 .836.11.21.261.371.472.48l.172.094 8.215.008 8.211.008.074.172c.207.5.73 1.105 1.211 1.39a2.903 2.903 0 001.703.41c.508-.023.73-.078 1.18-.3.418-.215.785-.504 1.04-.848.175-.23.437-.703.437-.785 0-.024.414-.04 1.226-.047l1.227-.008.172-.094c.21-.109.363-.27.472-.48.067-.121.086-.211.086-.418s-.02-.297-.086-.418a1.081 1.081 0 00-.472-.48l-.172-.094L27.039 15l-1.215-.012-.047-.129c-.074-.203-.3-.578-.492-.808a3.04 3.04 0 00-.902-.707c-.445-.239-.727-.305-1.305-.32-.27-.008-.5-.008-.523 0zm.855 2.075c.332.144.59.535.59.902s-.254.754-.598.906c-.484.215-1.07 0-1.297-.472-.085-.172-.109-.555-.054-.735.187-.57.797-.84 1.36-.601zm-11.027 5.965c-.653.128-1.352.57-1.754 1.105-.176.23-.438.703-.438.785 0 .024-.98.04-3.222.047l-3.23.008-.157.086c-.469.242-.684.73-.535 1.207.047.16.105.246.254.394.336.336.09.313 3.726.313h3.153l.039.129c.054.183.351.656.558.883.383.425.98.77 1.555.906.277.062.398.074.77.054.824-.03 1.39-.265 1.972-.82.258-.246.524-.62.668-.945l.094-.207h6.148c7.016 0 6.371.031 6.715-.313.149-.148.207-.234.254-.394.149-.477-.066-.965-.535-1.207l-.156-.086-12.422-.016-.113-.246a2.893 2.893 0 00-.66-.91 2.916 2.916 0 00-1.477-.777 4.035 4.035 0 00-1.207.003zm1.031 2.03c.078.036.203.126.281.2.625.629.196 1.7-.687 1.695-.852 0-1.317-.996-.762-1.629.309-.343.754-.449 1.168-.265zm0 0" id="surface1"/></svg>