<svg id="Icon" xmlns="http://www.w3.org/2000/svg" width="60" height="60"><path id="Icon_bg" fill="#ffb534" d="M0 0h60v60H0z"/><path id="icon-2" data-name="icon" d="M462.2 1018.6l-1.036-4.1a.614.614 0 00.5-.6v-.66a2.621 2.621 0 00-2.631-2.6h-4.723v-1.36a1.286 1.286 0 00-1.3-1.28h-24.046a1.286 1.286 0 00-1.3 1.28v11.22a.627.627 0 001.253 0v-11.22a.037.037 0 01.042-.04h24.051a.037.037 0 01.042.04v11.22a.627.627 0 001.253 0v-.7h7.395a2.047 2.047 0 011.946 1.4H461.7a.624.624 0 00-.626.62v1.32a1.953 1.953 0 001.962 1.94h.71v2.72h-1.637a3.982 3.982 0 00-7.5 0h-.3v-4.66a.627.627 0 00-1.253 0v4.66h-13a3.981 3.981 0 00-7.5 0h-3.6a.043.043 0 01-.042-.04v-1.36h2.714a.62.62 0 100-1.24h-6.013a.62.62 0 100 1.24h2.046v1.36a1.286 1.286 0 001.3 1.28h3.383v.04a3.967 3.967 0 007.934 0v-.04h14.116v.04a3.967 3.967 0 007.934 0v-.04h2.048a.624.624 0 00.626-.62v-6.6a3.276 3.276 0 00-2.802-3.22zm-7.889-4.08h5.565l1.023 4.04h-6.589v-4.04zm4.718-2.64a1.37 1.37 0 011.378 1.36v.04h-6.1v-1.4h4.718zm-22.715 19.88a2.68 2.68 0 112.714-2.68 2.7 2.7 0 01-2.715 2.68zm22.047 0a2.68 2.68 0 112.714-2.68 2.7 2.7 0 01-2.715 2.68zm4.676-7.92a.7.7 0 01-.709-.7v-.7h1.419v1.4h-.71zm-26.723 3.96a1.28 1.28 0 101.294 1.28 1.293 1.293 0 00-1.295-1.28zm22.047 0a1.28 1.28 0 101.294 1.28 1.293 1.293 0 00-1.295-1.28zm-17.329-2.02a.625.625 0 00.626.62h9.354a.62.62 0 100-1.24h-9.354a.625.625 0 00-.627.62zm-14.072-2.02h8.018a.62.62 0 100-1.24h-8.018a.62.62 0 10-.001 1.24zm18.932-9.64l-5.57 5.5-2.9-2.86a.635.635 0 00-.886 0 .619.619 0 000 .88l3.34 3.3a.635.635 0 00.886 0l6.013-5.94a.619.619 0 000-.88.635.635 0 00-.884 0z" transform="translate(-415 -990)" fill="#fff" fill-rule="evenodd"/></svg>