<svg id="Icon" xmlns="http://www.w3.org/2000/svg" width="60" height="60"><path id="Icon_bg" fill="#34c3ff" d="M0 0h60v60H0z"/><path id="Icon-2" data-name="Icon" d="M857 1010.44l-1.451-.11-.121 1.69a12.253 12.253 0 00-9.07-4.02 12.5 12.5 0 000 25 12.3 12.3 0 0010.265-5.55l-1.207-.82a10.863 10.863 0 01-9.058 4.9 11.031 11.031 0 010-22.06 10.806 10.806 0 018.057 3.61l-1.851-.14-.106 1.47 4.234.31zm-18.933 10.34a2.429 2.429 0 00.947.24c.356 0 .608-.11.608-.37a.539.539 0 00-.624-.41h-.46v-.73h.443a.477.477 0 00.554-.31c0-.17-.176-.29-.51-.29a2.022 2.022 0 00-.86.23l-.219-.74a2.666 2.666 0 011.309-.3 1.116 1.116 0 011.332.93.866.866 0 01-.7.84v.01a.87.87 0 01.816.84c0 .7-.657 1.11-1.611 1.11a2.514 2.514 0 01-1.243-.28zm4.617 1.05a1.538 1.538 0 11.006 0h-.006zm.011-.75c.28 0 .466-.35.466-1.11s-.186-1.11-.471-1.11-.471.34-.471 1.11.186 1.11.471 1.11zm3.183-3a9.807 9.807 0 011.3-.08 2.885 2.885 0 011.66.38 1.569 1.569 0 01.734 1.41 1.788 1.788 0 01-.679 1.52 3.173 3.173 0 01-1.917.5 7.786 7.786 0 01-1.1-.06v-3.67zm1.035 2.92a1.826 1.826 0 00.241.01 1.124 1.124 0 001.31-1.16 1.03 1.03 0 00-1.189-1.06 1.909 1.909 0 00-.362.03v2.18zm5.725.09a3.849 3.849 0 00.044.68h-.932l-.055-.23h-.021a1.012 1.012 0 01-.789.29.875.875 0 01-.943-.85c0-.74.647-1.07 1.666-1.07v-.02c0-.1-.066-.22-.471-.22a1.861 1.861 0 00-.817.21l-.18-.65a2.564 2.564 0 011.177-.26 1.134 1.134 0 011.321 1.21v.91zm-1-.55c-.455 0-.674.11-.674.34a.247.247 0 00.3.24.4.4 0 00.367-.28.689.689 0 00.011-.15v-.15zm2.443-1.5l.356 1.18c.044.16.1.38.137.51h.026c.038-.14.082-.36.115-.51l.268-1.18h1.129l-.57 1.56a4.369 4.369 0 01-1.09 2.02 1.683 1.683 0 01-.97.38l-.192-.88a1.2 1.2 0 00.335-.07.955.955 0 00.35-.25.223.223 0 00.055-.13.406.406 0 00-.044-.16l-1.057-2.47h1.156z" transform="translate(-815 -990)" fill="#fff" fill-rule="evenodd"/></svg>