<svg id="Icon" xmlns="http://www.w3.org/2000/svg" width="60" height="60"><path id="Icon_bg" fill="#fe3e57" d="M0 0h60v60H0z"/><path id="Icon-2" data-name="Icon" d="M1257.38 1019.68a2.391 2.391 0 00-1.45-.6 2.114 2.114 0 00-1.6.6l-2.89 2.79a1.309 1.309 0 00-.19-.27 1.885 1.885 0 00-1.47-.64h-4.04a8.421 8.421 0 01-2.21-.29 5.543 5.543 0 00-5.08 1.05 6.581 6.581 0 00-1.32 1.39l-.73-.69a.506.506 0 00-.36-.14.514.514 0 00-.37.15l-3.52 3.57a.508.508 0 00-.15.36.52.52 0 00.16.35l5.97 5.55a.518.518 0 00.35.14.53.53 0 00.37-.15l3.49-3.5a.554.554 0 00.15-.36.5.5 0 00-.16-.35l-.3-.29.69-.08a10.862 10.862 0 011.28-.07h6.15a4.75 4.75 0 002.53-.64.01.01 0 00.01-.01 3.055 3.055 0 00.66-.58l4.14-4.76a1.711 1.711 0 00-.11-2.53zm-18.91 12.12l-5.23-4.86 2.81-2.86 5.2 4.93zm18.25-10.24l-4.15 4.77a2.861 2.861 0 01-.45.4 3.755 3.755 0 01-1.97.47h-6.16a12.623 12.623 0 00-1.38.08l-1.54.17-3.2-3.04a6.478 6.478 0 011.22-1.32 4.508 4.508 0 014.16-.86 9.348 9.348 0 002.49.33h4.04a.9.9 0 01.92.97 1.091 1.091 0 01-.23.7.883.883 0 01-.7.28h-3.52a.512.512 0 00-.52.5.506.506 0 00.52.5h3.52a1.9 1.9 0 001.47-.64 2.04 2.04 0 00.49-1.27l3.33-3.22a1.222 1.222 0 011.63.03.742.742 0 01.03 1.15zm0 0l-12.07 3.32a.5.5 0 00-.61-.37.489.489 0 00-.38.6v.02a.513.513 0 00.5.38.375.375 0 00.11-.01.5.5 0 00.39-.6zm0 0l-9.19-6.35h4.98a1.242 1.242 0 00.73-.23 1.2 1.2 0 00.73.23h4.98a1.242 1.242 0 00.73-.23 1.19 1.19 0 00.72.23h4.98a1.221 1.221 0 001.24-1.21v-2.26a2.619 2.619 0 00-1.46-2.35 2.756 2.756 0 00.68-1.83 2.951 2.951 0 00-5.9 0 2.808 2.808 0 00.68 1.83 2.61 2.61 0 00-.94.8 2.73 2.73 0 00-.95-.8 2.808 2.808 0 00.68-1.83 2.951 2.951 0 00-5.9 0 2.756 2.756 0 00.68 1.83 2.643 2.643 0 00-.95.8 1.4 1.4 0 01-.27-2.63 2.951 2.951 0 00-5.9 0 2.808 2.808 0 00.68 1.83 2.637 2.637 0 00-1.46 2.35v2.26a1.227 1.227 0 001.24 1.21zm15.36-9.53a1.88 1.88 0 11-1.92 1.88 1.9 1.9 0 011.92-1.88zm-1.33 4.45a2.99 2.99 0 001.33.31 2.958 2.958 0 001.33-.31 1.624 1.624 0 011.38 1.61v2.26a.214.214 0 01-.22.21h-4.98a.205.205 0 01-.21-.21v-2.26a1.625 1.625 0 011.37-1.61zm-5.1-4.45a1.881 1.881 0 11-1.93 1.88 1.9 1.9 0 011.93-1.88zm-1.33 4.45a2.958 2.958 0 001.33.31 2.99 2.99 0 001.33-.31 1.625 1.625 0 011.37 1.61v2.26a.205.205 0 01-.21.21h-4.98a.214.214 0 01-.22-.21v-2.26a1.624 1.624 0 011.38-1.61zm-5.11-4.45a1.881 1.881 0 11-1.93 1.88 1.908 1.908 0 011.93-1.88zm-2.71 6.06a1.633 1.633 0 011.38-1.61 3.008 3.008 0 002.66 0 1.633 1.633 0 011.38 1.61v2.26a.214.214 0 01-.22.21h-4.98a.214.214 0 01-.22-.21v-2.26zm0 0" transform="translate(-1215 -990)" fill="#fff" fill-rule="evenodd"/></svg>