<svg xmlns="http://www.w3.org/2000/svg" width="18" height="16"><path d="M16.148 4.742c.016.14.016.285.016.426 0 4.336-3.715 9.328-10.5 9.328-2.09 0-4.031-.535-5.664-1.469.297.032.586.04.89.04 1.723 0 3.313-.516 4.583-1.403-1.625-.031-2.98-.973-3.45-2.27a6.7 6.7 0 00.696.047c.332 0 .66-.039.969-.109C2 9.027.73 7.707.73 6.113V6.07a4.03 4.03 0 001.668.418c-.992-.59-1.64-1.593-1.64-2.734 0-.606.18-1.164.5-1.652C3.07 4.09 5.8 5.395 8.863 5.532a3.204 3.204 0 01-.09-.75c0-1.81 1.641-3.278 3.684-3.278 1.066 0 2.023.394 2.7 1.035a7.872 7.872 0 002.343-.793c-.277.762-.86 1.402-1.621 1.809A8.1 8.1 0 0018 3.043a7.418 7.418 0 01-1.852 1.7zm0 0" id="surface1"/></svg>