<?xml version="1.0" encoding="UTF-8"?>
<svg xmlns="http://www.w3.org/2000/svg" xmlns:xlink="http://www.w3.org/1999/xlink" width="12px" height="12px" viewBox="0 0 10 10" version="1.1">
<g id="surface1">
<path style=" stroke:none;fill-rule:nonzero;fill:rgb(100%,100%,100%);fill-opacity:1;" d="M 8.613281 1.367188 C 8.546875 1.398438 8.015625 1.917969 6.199219 3.734375 L 3.875 6.058594 L 2.675781 4.84375 C 1.851562 4.007812 1.453125 3.621094 1.398438 3.59375 C 1.308594 3.550781 1.167969 3.542969 1.078125 3.578125 C 1 3.605469 0.0820312 4.523438 0.0390625 4.617188 C -0.0078125 4.71875 -0.0078125 4.832031 0.0390625 4.929688 C 0.0859375 5.042969 3.609375 8.585938 3.71875 8.632812 C 3.820312 8.679688 3.933594 8.679688 4.03125 8.632812 C 4.144531 8.582031 9.929688 2.792969 9.96875 2.691406 C 10.007812 2.59375 10.007812 2.488281 9.960938 2.390625 C 9.914062 2.285156 9.019531 1.398438 8.921875 1.359375 C 8.824219 1.320312 8.71875 1.320312 8.613281 1.367188 Z M 8.613281 1.367188 "/>
</g>
</svg>
