<svg id="Группа_2" data-name="Группа 2" xmlns="http://www.w3.org/2000/svg" xmlns:xlink="http://www.w3.org/1999/xlink" width="99" height="99" viewBox="0 0 99 99">
  <defs>
    <style>
      .cls-1 {
        fill: #fff;
        filter: url(#filter);
      }

      .cls-2 {
        fill: #fe3e57;
        fill-rule: evenodd;
      }
    </style>
    <filter id="filter" x="0" y="0" width="99" height="99" filterUnits="userSpaceOnUse">
      <feOffset result="offset" dy="5" in="SourceAlpha"/>
      <feGaussianBlur result="blur" stdDeviation="4.472"/>
      <feFlood result="flood" flood-color="#929292" flood-opacity="0.3"/>
      <feComposite result="composite" operator="in" in2="blur"/>
      <feBlend result="blend" in="SourceGraphic"/>
    </filter>
  </defs>
  <rect id="Icon_bg" class="cls-1" x="19" y="14" width="60" height="60"/>
  <path id="Location_icon" data-name="Location icon" class="cls-2" d="M405,1637a7.131,7.131,0,0,0-7,7.24c0,4.96,6.262,12.23,6.529,12.53a0.613,0.613,0,0,0,.937,0c0.267-.3,6.529-7.57,6.529-12.53A7.131,7.131,0,0,0,405,1637Zm0,10.88a3.642,3.642,0,1,1,3.521-3.64A3.584,3.584,0,0,1,405,1647.88Z" transform="translate(-356 -1603)"/>
</svg>
