<?xml version="1.0" encoding="UTF-8"?>
<svg xmlns="http://www.w3.org/2000/svg" xmlns:xlink="http://www.w3.org/1999/xlink" width="32px" height="32px" viewBox="0 0 32 32" version="1.1">
<g id="surface1">
<path style=" stroke:none;fill-rule:nonzero;fill:rgb(0%,0%,0%);fill-opacity:1;" d="M 8.296875 5.082031 C 7.949219 5.164062 7.390625 5.445312 7.105469 5.667969 C 6.746094 5.957031 6.414062 6.398438 6.238281 6.824219 L 6.175781 6.992188 L 5.023438 6.992188 C 3.648438 6.992188 3.605469 7 3.304688 7.304688 C 2.886719 7.722656 2.886719 8.277344 3.304688 8.695312 C 3.605469 9 3.648438 9.007812 5.023438 9.007812 L 6.175781 9.007812 L 6.222656 9.136719 C 6.289062 9.324219 6.507812 9.6875 6.695312 9.921875 C 7.015625 10.328125 7.699219 10.765625 8.226562 10.90625 C 8.515625 10.984375 9.203125 11.011719 9.507812 10.957031 C 10.109375 10.851562 10.601562 10.601562 11.050781 10.179688 C 11.355469 9.890625 11.550781 9.625 11.730469 9.242188 L 11.839844 9.007812 L 19.984375 9.007812 C 29.261719 9.007812 28.351562 9.039062 28.695312 8.695312 C 29.113281 8.277344 29.113281 7.722656 28.695312 7.304688 C 28.351562 6.960938 29.261719 6.992188 19.984375 6.992188 L 11.839844 6.992188 L 11.730469 6.753906 C 11.386719 6.035156 10.765625 5.445312 10.0625 5.191406 C 9.515625 4.996094 8.832031 4.953125 8.296875 5.082031 Z M 9.402344 7.089844 C 9.800781 7.265625 10.054688 7.738281 9.980469 8.160156 C 9.886719 8.652344 9.496094 8.988281 9.007812 8.988281 C 8.613281 8.988281 8.289062 8.785156 8.097656 8.417969 C 7.984375 8.195312 7.984375 7.804688 8.097656 7.582031 C 8.359375 7.078125 8.910156 6.871094 9.402344 7.089844 Z M 9.402344 7.089844 "/>
<path style=" stroke:none;fill-rule:nonzero;fill:rgb(0%,0%,0%);fill-opacity:1;" d="M 22.554688 13.023438 C 22.539062 13.03125 22.40625 13.0625 22.265625 13.09375 C 21.414062 13.289062 20.632812 13.949219 20.257812 14.785156 L 20.164062 14.992188 L 11.953125 15 L 3.738281 15.007812 L 3.566406 15.101562 C 3.355469 15.210938 3.203125 15.371094 3.09375 15.582031 C 2.976562 15.804688 2.976562 16.195312 3.09375 16.417969 C 3.203125 16.628906 3.355469 16.789062 3.566406 16.898438 L 3.738281 16.992188 L 11.953125 17 L 20.164062 17.007812 L 20.238281 17.179688 C 20.445312 17.679688 20.96875 18.285156 21.449219 18.570312 C 21.980469 18.882812 22.507812 19.011719 23.152344 18.980469 C 23.660156 18.957031 23.882812 18.902344 24.332031 18.679688 C 24.75 18.464844 25.117188 18.175781 25.371094 17.832031 C 25.546875 17.601562 25.808594 17.128906 25.808594 17.046875 C 25.808594 17.023438 26.222656 17.007812 27.035156 17 L 28.261719 16.992188 L 28.433594 16.898438 C 28.644531 16.789062 28.796875 16.628906 28.90625 16.417969 C 28.972656 16.296875 28.992188 16.207031 28.992188 16 C 28.992188 15.792969 28.972656 15.703125 28.90625 15.582031 C 28.796875 15.371094 28.644531 15.210938 28.433594 15.101562 L 28.261719 15.007812 L 27.039062 15 L 25.824219 14.988281 L 25.777344 14.859375 C 25.703125 14.65625 25.476562 14.28125 25.285156 14.050781 C 25.058594 13.78125 24.75 13.539062 24.382812 13.34375 C 23.9375 13.105469 23.65625 13.039062 23.078125 13.023438 C 22.808594 13.015625 22.578125 13.015625 22.554688 13.023438 Z M 23.410156 15.097656 C 23.742188 15.242188 24 15.632812 24 16 C 24 16.367188 23.746094 16.753906 23.402344 16.90625 C 22.917969 17.121094 22.332031 16.90625 22.105469 16.433594 C 22.019531 16.261719 21.996094 15.878906 22.050781 15.699219 C 22.238281 15.128906 22.847656 14.859375 23.410156 15.097656 Z M 23.410156 15.097656 "/>
<path style=" stroke:none;fill-rule:nonzero;fill:rgb(0%,0%,0%);fill-opacity:1;" d="M 12.382812 21.0625 C 11.730469 21.191406 11.03125 21.632812 10.628906 22.167969 C 10.453125 22.398438 10.191406 22.871094 10.191406 22.953125 C 10.191406 22.976562 9.210938 22.992188 6.96875 23 L 3.738281 23.007812 L 3.582031 23.09375 C 3.113281 23.335938 2.898438 23.824219 3.046875 24.300781 C 3.09375 24.460938 3.152344 24.546875 3.300781 24.695312 C 3.636719 25.03125 3.390625 25.007812 7.027344 25.007812 L 10.179688 25.007812 L 10.21875 25.136719 C 10.273438 25.320312 10.570312 25.792969 10.777344 26.019531 C 11.160156 26.445312 11.757812 26.789062 12.332031 26.925781 C 12.609375 26.988281 12.730469 27 13.101562 26.980469 C 13.925781 26.949219 14.492188 26.714844 15.074219 26.160156 C 15.332031 25.914062 15.597656 25.539062 15.742188 25.214844 L 15.835938 25.007812 L 21.984375 25.007812 C 29 25.007812 28.355469 25.039062 28.699219 24.695312 C 28.847656 24.546875 28.90625 24.460938 28.953125 24.300781 C 29.101562 23.824219 28.886719 23.335938 28.417969 23.09375 L 28.261719 23.007812 L 15.839844 22.992188 L 15.726562 22.746094 C 15.550781 22.378906 15.367188 22.125 15.066406 21.835938 C 14.640625 21.425781 14.171875 21.183594 13.589844 21.058594 C 13.300781 21 12.691406 21 12.382812 21.0625 Z M 13.414062 23.09375 C 13.492188 23.128906 13.617188 23.21875 13.695312 23.292969 C 14.320312 23.921875 13.890625 24.992188 13.007812 24.988281 C 12.15625 24.988281 11.691406 23.992188 12.246094 23.359375 C 12.554688 23.015625 13 22.910156 13.414062 23.09375 Z M 13.414062 23.09375 "/>
</g>
</svg>
