<?xml version="1.0" encoding="UTF-8"?>
<svg xmlns="http://www.w3.org/2000/svg" xmlns:xlink="http://www.w3.org/1999/xlink" width="18px" height="16px" viewBox="0 0 18 16" version="1.1">
<g id="surface1">
<path style=" stroke:none;fill-rule:nonzero;fill:rgb(0%,0%,0%);fill-opacity:1;" d="M 16.148438 4.742188 C 16.164062 4.882812 16.164062 5.027344 16.164062 5.167969 C 16.164062 9.503906 12.449219 14.496094 5.664062 14.496094 C 3.574219 14.496094 1.632812 13.960938 0 13.027344 C 0.296875 13.058594 0.585938 13.066406 0.890625 13.066406 C 2.613281 13.066406 4.203125 12.550781 5.472656 11.664062 C 3.847656 11.632812 2.492188 10.691406 2.023438 9.394531 C 2.25 9.417969 2.480469 9.441406 2.71875 9.441406 C 3.050781 9.441406 3.378906 9.402344 3.6875 9.332031 C 2 9.027344 0.730469 7.707031 0.730469 6.113281 L 0.730469 6.070312 C 1.222656 6.316406 1.792969 6.46875 2.398438 6.488281 C 1.40625 5.898438 0.757812 4.894531 0.757812 3.753906 C 0.757812 3.148438 0.9375 2.589844 1.257812 2.101562 C 3.070312 4.089844 5.800781 5.394531 8.863281 5.53125 C 8.804688 5.289062 8.773438 5.035156 8.773438 4.78125 C 8.773438 2.972656 10.414062 1.503906 12.457031 1.503906 C 13.523438 1.503906 14.480469 1.898438 15.15625 2.539062 C 15.992188 2.398438 16.785156 2.121094 17.5 1.746094 C 17.222656 2.507812 16.640625 3.148438 15.878906 3.554688 C 16.621094 3.480469 17.335938 3.300781 18 3.042969 C 17.5 3.695312 16.871094 4.273438 16.148438 4.742188 Z M 16.148438 4.742188 "/>
</g>
</svg>
